# xmcd CD database file
#
# Track frame offsets:
#	150
#	27804
#	50795
#	76549
#	107171
#	133069
#	156339
#	185139
#	214734
#	244494
#	270788
#	296475
#	320110
#
# Disc length: 4308 seconds
#
# Revision: 0
# Processed by: cddbd v1.5.1PL0 Copyright (c) Steve Scherf et al.
# Submitted via: CDex 1.51
#
DISCID=bf10d20d
DTITLE=Aebersold, Jamey - Volume 110 - Romantic Ballads
DYEAR=2004
DGENRE=Instructional
TTITLE0=Body and Soul
TTITLE1=When I Fall In Love
TTITLE2=I Cant Get Started
TTITLE3=I Could Write a Book
TTITLE4=Love Is Here to Stay
TTITLE5=I Only Have Eyes for You
TTITLE6=I Didnt Know What Time It Was
TTITLE7=Dancing In the Dark
TTITLE8=I Thought About You
TTITLE9=Someone To Watch Over Me
TTITLE10=Where or When
TTITLE11=Embraceable You
TTITLE12=Tuning Notes
EXTD=YEAR: 2004
EXTT0=
EXTT1=
EXTT2=
EXTT3=
EXTT4=
EXTT5=
EXTT6=
EXTT7=
EXTT8=
EXTT9=
EXTT10=
EXTT11=
EXTT12=
PLAYORDER=
